<svg width="23" height="23" viewBox="0 0 23 23" fill="none" xmlns="http://www.w3.org/2000/svg">
<path d="M15.9922 10.7188H7.00781C6.90039 10.7188 6.8125 10.8066 6.8125 10.9141V12.0859C6.8125 12.1934 6.90039 12.2812 7.00781 12.2812H15.9922C16.0996 12.2812 16.1875 12.1934 16.1875 12.0859V10.9141C16.1875 10.8066 16.0996 10.7188 15.9922 10.7188Z" fill="white"/>
<path d="M11.5 0.5625C5.45996 0.5625 0.5625 5.45996 0.5625 11.5C0.5625 17.54 5.45996 22.4375 11.5 22.4375C17.54 22.4375 22.4375 17.54 22.4375 11.5C22.4375 5.45996 17.54 0.5625 11.5 0.5625ZM11.5 20.582C6.48535 20.582 2.41797 16.5146 2.41797 11.5C2.41797 6.48535 6.48535 2.41797 11.5 2.41797C16.5146 2.41797 20.582 6.48535 20.582 11.5C20.582 16.5146 16.5146 20.582 11.5 20.582Z" fill="white"/>
</svg>
